<?xml version="1.0" encoding="UTF-8"?>
<svg xmlns="http://www.w3.org/2000/svg" xmlns:xlink="http://www.w3.org/1999/xlink" viewBox="0 0 512 512" width="512" height="512"><defs><linearGradient id="linear-gradient" x1="86.294" y1="425.706" x2="425.706" y2="86.294" gradientUnits="userSpaceOnUse"><stop offset="0" stop-color="#41dfd0"/><stop offset="1" stop-color="#ee83ef"/></linearGradient></defs><g id="gradient"><path d="M256,16A240,240,0,0,0,86.294,425.706,240,240,0,0,0,425.706,86.294,238.432,238.432,0,0,0,256,16ZM116.638,431.386A112.294,112.294,0,0,1,300.517,382.1q2.993,2.788,5.755,5.764l0,0A111.948,111.948,0,0,1,336,456.29l.63,8.823a224.662,224.662,0,0,1-219.992-33.727ZM320,256a96.324,96.324,0,0,0-1.169-14.968A67.366,67.366,0,0,1,367,221a68,68,0,1,1-64.356,89.99A95.459,95.459,0,0,0,320,256Zm-6.714,116.174c-.616-.6-1.235-1.193-1.865-1.779a128.087,128.087,0,0,0-46.308-27.656A96.41,96.41,0,0,0,290.978,324.7a84.077,84.077,0,0,0,38.944,39.689A116.465,116.465,0,0,0,313.286,372.174ZM224,336a80,80,0,1,1,80-80A80.091,80.091,0,0,1,224,336Zm190.392,78.392a224.21,224.21,0,0,1-62.2,44.026l-.234-3.268a127.874,127.874,0,0,0-27.606-70.785,100.938,100.938,0,0,1,108.139,9.617A227.75,227.75,0,0,1,414.392,414.392Zm27.535-33.362a116.663,116.663,0,0,0-34.759-18.276A83.988,83.988,0,0,0,367,205a83.13,83.13,0,0,0-52.648,18.556A96,96,0,1,0,182.893,342.742,128.113,128.113,0,0,0,103.549,420.1c-2.006-1.867-3.993-3.761-5.941-5.709A224,224,0,0,1,414.392,97.608,224.141,224.141,0,0,1,441.927,381.03ZM457.97,206.086a8,8,0,1,1-15.535,3.828,192.954,192.954,0,0,0-67.153-104.376A189.971,189.971,0,0,0,256,64C150.131,64,64,150.131,64,256a192.212,192.212,0,0,0,44.463,122.877,8,8,0,1,1-12.289,10.246A208.24,208.24,0,0,1,48,256C48,141.309,141.309,48,256,48A205.822,205.822,0,0,1,385.23,93.006,209.034,209.034,0,0,1,457.97,206.086Z" style="fill:url(#linear-gradient)"/></g></svg>
