<?xml version="1.0" encoding="iso-8859-1"?>
<!-- Generator: Adobe Illustrator 19.0.0, SVG Export Plug-In . SVG Version: 6.00 Build 0)  -->
<svg version="1.1" id="Capa_1" xmlns="http://www.w3.org/2000/svg" xmlns:xlink="http://www.w3.org/1999/xlink" x="0px" y="0px"
	 viewBox="0 0 512 512" style="enable-background:new 0 0 512 512;" xml:space="preserve">
<linearGradient id="SVGID_1_" gradientUnits="userSpaceOnUse" x1="0" y1="258" x2="512" y2="258" gradientTransform="matrix(1 0 0 -1 0 514)">
	<stop  offset="0" style="stop-color:#80D8FF"/>
	<stop  offset="1" style="stop-color:#EA80FC"/>
</linearGradient>
<path style="fill:url(#SVGID_1_);" d="M256,151.932c-57.346,0-104,46.685-104,104.068s46.654,104.068,104,104.068
	S360,313.383,360,256S313.346,151.932,256,151.932z M256,320.042c-35.29,0-64-28.729-64-64.042s28.71-64.042,64-64.042
	s64,28.729,64,64.042S291.29,320.042,256,320.042z M512,256c0,68.425-26.629,132.754-74.981,181.139
	c-7.813,7.818-20.476,7.813-28.284-0.001c-7.811-7.816-7.81-20.487,0.001-28.303C449.532,368.012,472,313.734,472,256
	s-22.468-112.012-63.265-152.835c-7.811-7.816-7.812-20.487-0.001-28.303s20.474-7.817,28.284-0.001
	C485.371,123.246,512,187.575,512,256z M103.265,408.835c7.811,7.816,7.811,20.488,0,28.304c-7.811,7.816-20.475,7.814-28.284,0
	C26.628,388.754,0,324.425,0,256S26.628,123.246,74.98,74.861c7.81-7.815,20.473-7.815,28.284,0c7.811,7.816,7.811,20.488,0,28.304
	C62.468,143.988,40,198.266,40,256S62.468,368.012,103.265,408.835z M157.005,355.059c7.811,7.816,7.811,20.488,0,28.303
	c-7.811,7.816-20.474,7.816-28.284,0.001C94.723,349.343,76,304.112,76,256s18.723-93.343,52.721-127.363
	c7.811-7.816,20.474-7.816,28.284,0.001c7.811,7.815,7.811,20.487,0,28.303C130.562,183.4,116,218.58,116,256
	S130.562,328.6,157.005,355.059z M436,256c0,48.112-18.724,93.343-52.722,127.363c-7.813,7.818-20.476,7.813-28.284-0.001
	c-7.811-7.816-7.81-20.487,0.001-28.303C381.438,328.6,396,293.42,396,256s-14.563-72.6-41.005-99.059
	c-7.811-7.816-7.812-20.487-0.001-28.303s20.474-7.817,28.284-0.001C417.276,162.657,436,207.888,436,256z"/>
<g>
</g>
<g>
</g>
<g>
</g>
<g>
</g>
<g>
</g>
<g>
</g>
<g>
</g>
<g>
</g>
<g>
</g>
<g>
</g>
<g>
</g>
<g>
</g>
<g>
</g>
<g>
</g>
<g>
</g>
</svg>
